<?xml version="1.0" standalone="no"?><svg xmlns="http://www.w3.org/2000/svg" viewBox="0 0 1440 320"><path fill="#0099ff" fill-opacity="1" d="M0,256L30,224C60,192,120,128,180,128C240,128,300,192,360,186.7C420,181,480,107,540,101.3C600,96,660,160,720,202.7C780,245,840,267,900,256C960,245,1020,203,1080,197.3C1140,192,1200,224,1260,229.3C1320,235,1380,213,1410,202.7L1440,192L1440,0L1410,0C1380,0,1320,0,1260,0C1200,0,1140,0,1080,0C1020,0,960,0,900,0C840,0,780,0,720,0C660,0,600,0,540,0C480,0,420,0,360,0C300,0,240,0,180,0C120,0,60,0,30,0L0,0Z"></path></svg>